<svg width="257" height="132" viewBox="0 0 257 132" fill="none" xmlns="http://www.w3.org/2000/svg">
<path d="M181.439 131.35L181.071 105.947L174.731 131.301C172.321 131.485 169.995 131.4 167.126 131.301L160.524 105.904L160.142 131.329L151.724 131.315V91.4284H166.73L171.868 111.036L176.866 91.5627C182.033 91.3082 187.002 91.2799 192.586 91.598V131.11C188.79 131.647 185.673 131.287 181.439 131.357V131.35Z" fill="#6CBD4F"/>
<path d="M238.714 131.986C229.829 132.439 226.457 121.391 227.539 113.581C228.161 109.057 229.447 104.865 233.208 102.321C236.968 99.7761 241.562 99.7831 245.16 103.741C244.835 99.6771 244.736 96.2772 244.955 92.0362C248.525 90.5378 252.214 90.043 256.173 89.2301L256.13 131.223C251.19 130.884 244.411 133.351 245.309 128.452C243.648 130.75 241.414 131.852 238.728 131.986H238.714ZM244.786 110.372C244.701 109.007 242.814 108.336 241.965 108.562C238.318 109.537 239.025 118.076 239.47 121.285C239.696 122.918 241.011 123.936 242.361 123.695C245.945 123.066 245.118 115.927 244.786 110.364V110.372Z" fill="#6CBD4F"/>
<path d="M214.462 120.204L225.27 120.239C223.75 128.452 217.042 132.319 209.168 131.888C200.849 131.428 194.876 125.406 194.629 117.433C194.473 112.45 196.063 108.505 199.428 105.155C205.387 99.2177 215.48 100.292 219.954 104.356C223.87 107.919 225.651 113.298 225.029 118.719L207.019 118.804C206.411 119.815 206.722 121.299 207.09 122.204C207.521 123.264 208.772 123.603 210.271 123.752C212.617 123.985 214.172 123.215 214.455 120.196L214.462 120.204ZM213.791 112.421C214.25 109.7 212.123 108.145 209.91 108.166C207.698 108.187 206.235 109.877 206.843 112.428H213.784L213.791 112.421Z" fill="#6CBD4F"/>
<path d="M69.8866 131.266L59.3194 131.343L59.2275 111.856C59.2204 110.188 58.0542 109.495 56.8313 109.502C55.6085 109.509 54.4422 110.195 54.4352 111.863L54.3433 131.343H43.769V101.939C49.1056 102.582 54.5695 99.8397 53.9192 104.879C55.9124 102.328 58.0612 100.921 61.0865 101.112C64.1117 101.303 67.2713 101.996 68.897 105.523C70.3955 102.264 73.3006 101.183 76.969 101.077C81.5493 100.949 85.4581 103.65 85.861 108.597C86.4547 115.977 86.0024 123.448 86.0377 131.11C81.9875 131.633 78.6442 131.28 74.8556 131.343L74.6506 110.52C74.6435 109.46 72.4382 109.438 71.795 109.707C71.0175 110.025 69.9926 111.22 69.9855 112.563L69.8936 131.273L69.8866 131.266Z" fill="#0473EA"/>
<path d="M102.097 123.497C106.288 125.123 108.253 119.617 118.686 120.953C117.202 128.311 110.826 131.88 103.793 131.598C98.5133 131.386 94.3006 130.092 91.1339 125.505C88.2995 121.405 87.2675 116.45 89.2608 111.213C92.4911 102.731 100.132 99.2813 108.381 101.55C116 103.65 119.831 111.206 118.382 118.712L100.316 118.755C99.9411 120.776 100.676 122.939 102.097 123.49V123.497ZM107.342 112.386C107.688 108.852 105.638 108.117 103.39 108.124C101.305 108.124 100.033 109.962 100.266 112.435L107.342 112.386Z" fill="#0473EA"/>
<path d="M144.599 128.954C140.202 132.262 134.364 132.404 129.183 131.336C123.91 130.255 120.708 125.971 119.436 120.925L128.455 120.048C129.699 123.83 132.477 125.081 136.272 124.324C137.092 124.162 138.032 124.119 138.322 123.264C139.163 120.727 131.346 121.85 125.663 118.684C120.545 115.828 120.114 109.283 123.811 104.929C126.504 101.755 130.674 101.218 134.802 101.091C140.471 100.914 146.104 103.48 147.433 109.248C144.401 109.545 141.743 110.711 139.114 110.569C137.898 110.202 137.05 108.004 135.77 108.152C133.841 108.385 131.939 107.495 130.858 110.082C136.633 112.57 146.373 109.841 148.663 119.497C149.448 122.819 147.822 126.53 144.613 128.94L144.599 128.954Z" fill="#0473EA"/>
<path d="M19.1076 131.244C15.2907 131.421 11.8838 131.555 7.91137 131.124L7.78414 101.974L0.0372407 101.89C0.136197 98.3836 -0.238424 95.2029 0.291701 91.5273L26.8192 91.3789L26.7202 101.755L19.0793 101.96L19.1076 131.244Z" fill="#0473EA"/>
<path d="M40.9345 131.032C37.5487 131.52 30.9681 131.817 29.2788 130.707C28.7628 130.368 29.5827 129.817 29.5898 129.152L29.6817 101.96H40.9698L40.9345 131.039V131.032Z" fill="#0473EA"/>
<path d="M40.7931 100.172C36.9408 100.773 33.5268 100.561 29.7382 100.363C29.5897 97.3021 29.929 94.7505 29.0879 91.6545C33.2582 91.2304 36.7076 91.287 40.6446 91.6121C41.203 94.4677 41.0546 96.9134 40.7931 100.165V100.172Z" fill="#0473EA"/>
<path d="M157.399 37.8432C156.261 44.0139 152.692 47.8025 148.232 51.5629L142.513 56.3906C137.587 60.5467 133.31 64.7524 133.409 71.9056C130.278 71.1492 129.797 68.7319 128.25 66.1025C126.574 68.7389 126.362 71.2977 122.835 71.8349C125.514 66.6467 123.789 63.0772 120.022 60.1368L106.21 49.3858C102.712 46.6645 100.436 43.2293 99.8984 38.543C93.6995 43.8867 109.038 54.2771 105.051 59.2744C102.323 56.7722 99.8489 54.6305 98.1031 51.8173C94.4134 45.8658 94.9152 38.5289 101.701 34.4999C102.98 40.5787 105.702 45.4134 110.522 48.6507L125.634 58.7797C127.126 59.7834 127.083 61.819 128.631 63.3599C136.371 51.4074 150.734 50.7217 154.749 34.9735C161.923 35.235 160.453 45.159 159.407 49.2515C158.24 53.8247 155.293 57.3731 150.939 58.9988C153.696 51.2377 160.849 45.1448 157.406 37.8362L157.399 37.8432Z" fill="#6CBD4F"/>
<path d="M77.8242 30.4498C86.1437 42.7628 82.0228 49.5484 94.9014 61.2748C103.433 69.05 111.3 69.7639 114.226 78.5852C105.893 74.5916 97.8135 71.0715 90.7522 65.4593C76.7145 54.2913 85.3732 40.7766 69.6108 25.6504C79.6337 19.6706 92.802 43.3495 94.8731 50.0361C92.0457 48.0782 89.5153 46.7706 87.6775 44.6147C83.6698 39.9214 80.7576 28.301 77.8172 30.4427L77.8242 30.4498Z" fill="#6CBD4F"/>
<path d="M163.917 58.7797C170.137 52.1142 172.498 43.406 175.537 34.0617C171.225 37.2071 167.882 48.2337 161.266 50.6016C161.344 46.8059 173.176 31.6867 176.067 27.99C178.428 24.9718 182.846 23.9681 186.542 25.0778C177.848 35.3128 177.94 46.7352 172.604 56.1573C166.85 66.3145 152.325 72.5629 141.475 78.2388C143.963 70.0749 156.325 66.9153 163.917 58.7797Z" fill="#6CBD4F"/>
<path d="M125.422 9.22358C126.546 10.4393 128.865 11.8459 130.116 11.2593C145.185 4.2192 161.732 1.75235 178.569 2.27541C177.042 5.03206 174.024 8.40366 170.582 8.38952C160.757 8.36125 151.476 9.08929 142.273 11.754C145.256 12.5457 147.546 10.8069 150.119 11.3299C151.229 11.5561 153.017 11.6268 153.646 10.6302C155.929 10.8846 158.248 10.3545 160.707 10.3333C163.167 10.3121 165.486 10.9483 167.762 10.6302L168.468 12.0297C167.5 13.4929 165.691 15.4437 163.563 15.4579L152.946 15.5356C151.695 14.0583 149.455 14.7157 148.006 15.5356C147.066 16.0657 144.945 14.7086 144.479 16.2354C144.196 16.2354 143.637 16.5888 143.857 16.8079C146.345 17.0412 148.613 16.9634 150.826 16.9422C154.289 16.8998 157.76 17.0694 161.591 18.4195C155.788 24.9577 155.505 21.4377 146.648 21.162C144.168 21.0843 141.962 21.2539 139.474 20.8722C140.838 24.2155 140.732 28.0324 138.131 30.266C136.661 30.7679 136.025 32.4784 134.604 33.0651C132.074 34.1112 136.717 35.4401 136.52 37.9352C136.322 40.4303 134.449 41.6531 132.413 43.1304C133.438 43.7736 134.3 44.5229 134.548 45.4842C135.749 50.1917 128.299 48.6649 132.491 52.6939C131.727 53.2947 131.748 54.673 130.462 54.8497C131.395 49.9301 119.958 50.6299 123.118 44.4663C123.471 43.7807 124.362 43.8655 125.493 43.2506C122.849 41.851 120.595 40.2394 121.287 37.1152C121.669 35.3976 122.8 34.4858 124.786 34.189L122.439 33.1499C121.16 32.5844 120.397 30.9375 119.075 30.4215C117.859 27.7356 115.668 24.8305 117.69 21.7345C118.608 20.3279 121.061 21.9537 122.63 20.7238C116.445 19.8402 107.773 21.1196 100.853 21.9042C99.3189 21.1408 97.5872 19.5716 96.0816 18.2216C102.054 15.5427 107.801 16.5252 114.304 16.1011C112.056 14.2704 96.8662 14.5743 93.2472 15.366L87.5925 10.2132C93.0634 9.69009 98.1385 9.97283 103.56 10.0152C107.165 10.0435 110.466 11.747 114.226 11.0472C104.811 8.51675 95.2405 7.73216 85.2812 7.73923C82.8426 6.70019 80.5101 4.27575 78.7783 2.37437C93.1907 1.14448 107.023 3.10947 120.46 7.80992C122.27 8.44607 123.712 9.38616 125.415 9.24479L125.422 9.22358ZM133.6 14.8358C133.869 14.2633 133.155 13.5423 133.063 13.0405C132.978 12.581 131.642 12.4114 131.049 13.1041C131.911 13.4646 132.597 13.712 133.6 14.8429V14.8358ZM138.28 18.7517C138.117 17.0906 137.028 15.2034 134.583 14.751C135.523 16.4969 136.484 17.6915 138.28 18.7517ZM128.85 30.054C130.618 29.7854 133.36 26.6188 132.872 25.0425C132.385 23.4663 129.628 22.2152 128.094 22.0243C126.702 21.8547 124.786 23.848 124.645 25.3959C124.468 27.3397 126.815 30.3579 128.85 30.0469V30.054ZM132.074 38.5572C130.547 37.815 129.352 36.3024 128.08 36.4226C126.864 37.0022 125.754 38.6561 126.186 39.6316C126.539 40.4303 127.988 41.4411 129.14 41.2785C130.292 41.1159 130.929 39.6952 132.074 38.5643V38.5572ZM130.667 46.707C130.766 45.7881 129.07 45.2792 128.455 45.1025C127.712 44.8834 127.041 45.781 126.15 46.7282C126.751 47.5198 127.536 48.0712 128.582 49.195C129.048 48.4529 130.54 47.9086 130.667 46.714V46.707Z" fill="#0473EA"/>
<path d="M119.068 30.4003C120.39 30.9163 121.153 32.5632 122.432 33.1286C120.814 34.0546 116.792 33.4467 115.159 36.6558C112.056 42.7345 128.002 56.2209 128.419 56.1856C129.225 56.1149 129.755 54.9274 130.455 54.8355C131.741 54.6588 131.72 53.2805 132.484 52.6797C136.915 49.2021 140.852 44.4097 142.16 38.543C143.242 33.6729 134.272 33.9698 134.604 33.0509C136.025 32.4642 136.661 30.7537 138.131 30.2518C141.397 29.135 145.772 28.923 148.154 32.2663C153.109 39.2074 136.244 54.9557 128.985 57.1398C118.721 53.5208 110.296 45.6043 107.893 35.1714C107.285 32.542 110.6 30.5416 112.303 29.9267C114.155 29.2623 117.181 29.651 119.075 30.3932L119.068 30.4003Z" fill="#F9BD32"/>
<path d="M125.422 9.22357C123.945 7.61905 122.779 5.25823 123.457 3.44874C124.475 0.7557 126.751 -0.325754 129.614 0.0842092C132.476 0.494173 134.06 2.04214 134.046 4.66449C134.032 6.91222 132.667 8.81361 129.967 9.76076C128.419 10.305 126.878 9.10341 125.415 9.22357H125.422Z" fill="#0473EA"/>
<path d="M150.819 16.9351C148.607 16.9634 146.338 17.0341 143.85 16.8008C143.623 16.5817 144.189 16.2353 144.472 16.2283H149.448C150.19 16.2212 150.868 16.3555 150.819 16.928V16.9351Z" fill="#0473EA"/>
<path d="M152.939 15.5356H147.999C149.44 14.7156 151.688 14.0583 152.939 15.5356Z" fill="#0473EA"/>
<path d="M153.646 10.6302C153.017 11.6339 151.229 11.5561 150.119 11.3299C150.769 10.2626 152.501 10.5029 153.646 10.6302Z" fill="#0473EA"/>
<path d="M168.462 12.0297L167.755 10.6302C168.327 10.5524 168.907 10.5665 169.918 10.7645C169.571 11.549 169.006 11.7894 168.462 12.0368V12.0297Z" fill="#0473EA"/>
<path d="M138.28 18.7517C136.477 17.6844 135.516 16.4969 134.583 14.751C137.029 15.2104 138.117 17.0906 138.28 18.7517Z" fill="#0473EA"/>
<path d="M133.601 14.8358C132.597 13.7049 131.911 13.4575 131.049 13.097C131.643 12.4043 132.986 12.5739 133.063 13.0334C133.155 13.5352 133.869 14.2562 133.601 14.8287V14.8358Z" fill="#0473EA"/>
</svg>
