<svg width="18" height="18" viewBox="0 0 18 18" fill="none" xmlns="http://www.w3.org/2000/svg">
<path d="M18 10.9276V8.35579C17.8729 6.99785 16.9047 7.00966 15.4286 7.06992V12.2135C17.7985 12.4598 17.9189 11.5278 18 10.9276ZM2.57143 12.2135V7.06995C1.09522 7.00969 0.127125 6.99788 0 8.35583V10.9276C0.0810703 11.5278 0.201515 12.4598 2.57143 12.2135M0.642867 15.4283H17.3571V18H0.642867V15.4283ZM11.5425 2.56925C11.1373 -0.758466 6.94136 -0.952986 6.4575 2.56925H11.5425ZM0.755227 1.15526C1.10159 0.501639 2.03034 0.46353 2.42297 1.08681C2.76145 1.62407 2.4846 2.31008 1.92839 2.50818L1.92857 6.42694H1.2857V2.50997C0.757898 2.32674 0.468316 1.69667 0.755227 1.15526ZM12.2143 8.03429C12.2143 8.77398 11.4082 9.23874 10.7668 8.8689C10.1254 8.49909 10.1254 7.56952 10.7668 7.19968C11.4082 6.82983 12.2143 7.2946 12.2143 8.03429ZM6.26678 8.8689C6.90817 9.23874 7.7143 8.77398 7.7143 8.03429C7.7143 7.2946 6.90817 6.82983 6.26678 7.19968C5.62535 7.56952 5.62535 8.49909 6.26678 8.8689ZM14.7857 5.78397V14.7853H3.21434V5.78401C3.21434 4.36373 4.3657 3.21222 5.78573 3.21222H12.2143C13.6344 3.21222 14.7857 4.36373 14.7857 5.78401M5.94461 9.42542C7.01364 10.0418 8.35713 9.26715 8.35713 8.03436C8.35713 6.80157 7.01364 6.02694 5.94461 6.64333C4.87557 7.25973 4.87561 8.80903 5.94461 9.42542ZM12.2143 11.5706H5.78566V12.8565H12.2143L12.2143 11.5706ZM12.8571 8.03436C12.8571 6.8016 11.5136 6.02694 10.4446 6.64333C9.37557 7.25973 9.37561 8.80903 10.4446 9.42542C11.5136 10.0418 12.8571 9.26715 12.8571 8.03436Z" fill="#0473EA"/>
</svg>
