<svg width="25" height="28" viewBox="0 0 25 28" fill="none" xmlns="http://www.w3.org/2000/svg">
<path d="M12.5 0C8.34207 0 5.50305 0.216463 3.74756 0.421341C1.98659 0.626829 0.643902 1.96159 0.442683 3.72927C0.229268 5.60549 0 8.775 0 13.7195C0 18.664 0.229878 21.8335 0.442683 23.7098C0.643902 25.4774 1.98659 26.8122 3.74756 27.0177C5.50366 27.2226 8.34207 27.439 12.5 27.439C16.6579 27.439 19.497 27.2226 21.2524 27.0177C23.0134 26.8122 24.3561 25.4774 24.5573 23.7098C24.7701 21.8335 25 18.6646 25 13.7195C25 11.8677 24.9677 10.2646 24.9165 8.88597C24.9129 8.79169 24.8948 8.69851 24.8628 8.60976C24.5829 7.83476 23.7287 6.06463 21.2512 3.64939C18.6226 1.08598 16.7439 0.307927 16.0451 0.0902439C15.9662 0.0657013 15.8844 0.0519584 15.8018 0.0493902C14.8091 0.0189024 13.7104 0 12.5 0Z" fill="#8FBFFA"/>
<path fill-rule="evenodd" clip-rule="evenodd" d="M4.72559 22.256C4.72559 22.8457 5.20363 23.3231 5.79266 23.3231H19.2073C19.4903 23.3231 19.7617 23.2107 19.9618 23.0106C20.1619 22.8105 20.2744 22.5391 20.2744 22.256C20.2744 21.973 20.1619 21.7016 19.9618 21.5015C19.7617 21.3014 19.4903 21.189 19.2073 21.189H5.79266C5.50965 21.189 5.23824 21.3014 5.03812 21.5015C4.83801 21.7016 4.72559 21.973 4.72559 22.256ZM4.72559 17.9878C4.72559 17.3987 5.20363 16.9207 5.79266 16.9207H19.2073C19.4903 16.9207 19.7617 17.0331 19.9618 17.2332C20.1619 17.4333 20.2744 17.7048 20.2744 17.9878C20.2744 18.2708 20.1619 18.5422 19.9618 18.7423C19.7617 18.9424 19.4903 19.0548 19.2073 19.0548H5.79266C5.50965 19.0548 5.23824 18.9424 5.03812 18.7423C4.83801 18.5422 4.72559 18.2708 4.72559 17.9878Z" fill="#2859C5"/>
<path d="M18.0886 5.64817C16.9201 5.61237 15.7512 5.70252 14.602 5.91707C13.4886 6.12805 13.1977 7.45732 13.9239 8.18354L14.6093 8.86951L14.5685 8.90549C14.3855 9.06585 14.13 9.29634 13.8337 9.58049C13.2567 10.1298 12.7092 10.7093 12.1935 11.3165C11.9386 10.536 11.6185 9.65488 11.2721 8.95244C10.841 8.07927 9.74956 7.66463 8.82944 8.22927C7.95444 8.76707 6.53919 9.94024 4.90017 12.4451C4.74524 12.682 4.69075 12.9706 4.74866 13.2477C4.80658 13.5247 4.97217 13.7673 5.20901 13.9223C5.44584 14.0772 5.73452 14.1317 6.01154 14.0738C6.28856 14.0158 6.53122 13.8503 6.68614 13.6134C7.89407 11.7671 8.90931 10.8037 9.552 10.3189C9.84773 11.0061 10.1313 11.8494 10.3538 12.5774C10.5782 13.311 11.2075 13.6927 11.7746 13.7805C12.3386 13.8677 13.03 13.6994 13.4776 13.122C14.0721 12.3561 14.7605 11.6463 15.3081 11.1226C15.5732 10.8691 15.8446 10.6222 16.1221 10.3823L16.8172 11.0768C17.5428 11.8024 18.8721 11.5116 19.0831 10.3982C19.3654 8.90854 19.3758 7.60549 19.352 6.91159C19.3416 6.5798 19.2052 6.26445 18.9704 6.02972C18.7357 5.795 18.4204 5.65856 18.0886 5.64817Z" fill="#2859C5"/>
</svg>
