<svg width="25" height="26" viewBox="0 0 25 26" fill="none" xmlns="http://www.w3.org/2000/svg">
<path d="M7.18738 0.9375C7.18738 0.68886 7.08861 0.450403 6.9128 0.274587C6.73698 0.0987721 6.49852 0 6.24988 0C6.00124 0 5.76279 0.0987721 5.58697 0.274587C5.41115 0.450403 5.31238 0.68886 5.31238 0.9375V2.9125C3.51238 3.05625 2.33238 3.40875 1.46488 4.2775C0.596133 5.145 0.243633 6.32625 0.0986328 8.125H24.9011C24.7561 6.325 24.4036 5.145 23.5349 4.2775C22.6674 3.40875 21.4861 3.05625 19.6874 2.91125V0.9375C19.6874 0.68886 19.5886 0.450403 19.4128 0.274587C19.237 0.0987721 18.9985 0 18.7499 0C18.5012 0 18.2628 0.0987721 18.087 0.274587C17.9112 0.450403 17.8124 0.68886 17.8124 0.9375V2.82875C16.9811 2.8125 16.0486 2.8125 14.9999 2.8125H9.99988C8.95113 2.8125 8.01863 2.8125 7.18738 2.82875V0.9375Z" fill="#0473EA"/>
<path fill-rule="evenodd" clip-rule="evenodd" d="M25 12.8126C25 11.7638 25 10.8313 24.9837 10.0001H0.01625C1.39698e-08 10.8313 0 11.7638 0 12.8126V15.3126C0 20.0263 -1.49012e-07 22.3838 1.465 23.8476C2.93 25.3113 5.28625 25.3126 10 25.3126H15C19.7137 25.3126 22.0712 25.3126 23.535 23.8476C24.9987 22.3826 25 20.0263 25 15.3126V12.8126ZM15 13.1251C14.4198 13.1251 13.8634 13.3555 13.4532 13.7658C13.043 14.176 12.8125 14.7324 12.8125 15.3126V17.8126C12.8125 18.3927 13.043 18.9491 13.4532 19.3594C13.8634 19.7696 14.4198 20.0001 15 20.0001C15.5802 20.0001 16.1366 19.7696 16.5468 19.3594C16.957 18.9491 17.1875 18.3927 17.1875 17.8126V15.3126C17.1875 14.7324 16.957 14.176 16.5468 13.7658C16.1366 13.3555 15.5802 13.1251 15 13.1251ZM15 15.0001C14.9171 15.0001 14.8376 15.033 14.779 15.0916C14.7204 15.1502 14.6875 15.2297 14.6875 15.3126V17.8126C14.6875 17.8954 14.7204 17.9749 14.779 18.0335C14.8376 18.0921 14.9171 18.1251 15 18.1251C15.0829 18.1251 15.1624 18.0921 15.221 18.0335C15.2796 17.9749 15.3125 17.8954 15.3125 17.8126V15.3126C15.3125 15.2297 15.2796 15.1502 15.221 15.0916C15.1624 15.033 15.0829 15.0001 15 15.0001ZM10.9837 13.1963C11.1551 13.2673 11.3015 13.3875 11.4045 13.5416C11.5075 13.6958 11.5625 13.8771 11.5625 14.0626V19.0626C11.5625 19.3112 11.4637 19.5497 11.2879 19.7255C11.1121 19.9013 10.8736 20.0001 10.625 20.0001C10.3764 20.0001 10.1379 19.9013 9.96209 19.7255C9.78627 19.5497 9.6875 19.3112 9.6875 19.0626V16.3251L9.4125 16.6001C9.23478 16.7657 8.99972 16.8558 8.75685 16.8515C8.51397 16.8472 8.28224 16.7489 8.11047 16.5771C7.93871 16.4053 7.84032 16.1736 7.83603 15.9307C7.83175 15.6878 7.9219 15.4528 8.0875 15.2751L9.9625 13.4001C10.0935 13.2689 10.2605 13.1796 10.4422 13.1433C10.624 13.1071 10.8124 13.1255 10.9837 13.1963Z" fill="#0473EA"/>
</svg>
