<svg width="17" height="25" viewBox="0 0 17 25" fill="none" xmlns="http://www.w3.org/2000/svg">
<path d="M16.4511 7.81158C16.4511 7.40122 16.366 6.99487 16.2006 6.61575C16.0353 6.23663 15.7929 5.89217 15.4874 5.60203C15.1818 5.3119 14.8191 5.08178 14.4199 4.92482C14.0207 4.76786 13.5929 4.68714 13.1609 4.68726H3.29025C2.41788 4.68726 1.58124 5.01643 0.964381 5.60235C0.347523 6.18828 0.000976563 6.98296 0.000976562 7.81158V21.8755C0.000976562 22.2858 0.0860559 22.6921 0.251357 23.0712C0.416658 23.4502 0.658944 23.7947 0.964381 24.0848C1.26982 24.3749 1.63243 24.605 2.0315 24.762C2.43057 24.9191 2.85829 24.9999 3.29025 24.9999H13.1609C13.5928 24.9999 14.0206 24.9191 14.4196 24.762C14.8187 24.605 15.1813 24.3749 15.4867 24.0848C15.7922 23.7947 16.0345 23.4502 16.1998 23.0712C16.3651 22.6921 16.4502 22.2858 16.4502 21.8755L16.4511 7.81158Z" fill="#0473EA"/>
<path fill-rule="evenodd" clip-rule="evenodd" d="M16.4511 9.37473H0.000976562V8.20288H16.4511V9.37473ZM0.000976562 20.3126H16.4511V21.4853H0.000976562V20.3126Z" fill="#6BAFFF"/>
<path d="M16.4511 3.90586C16.4511 4.33736 16.0835 4.68739 15.6283 4.68739H0.822794C0.714639 4.68774 0.607478 4.66777 0.507484 4.62862C0.40749 4.58947 0.316638 4.53192 0.24016 4.45927C0.163683 4.38663 0.103091 4.30034 0.0618745 4.20536C0.0206578 4.11038 -0.000368703 4.00859 4.89238e-06 3.90586V0.781529C4.89238e-06 0.349136 0.368516 0 0.822794 0H15.6292C16.0826 0 16.4511 0.349137 16.4511 0.780634V3.90586ZM12.7499 13.0541H10.111V10.5475H6.34104V13.0541H3.70208V16.635H6.34104V19.1417H10.111V16.635H12.7499V13.0541Z" fill="#B0B0B0"/>
</svg>
