<svg width="27" height="28" viewBox="0 0 27 28" fill="none" xmlns="http://www.w3.org/2000/svg">
<path d="M13.0961 21.3618C9.30567 22.4522 7.22422 17.1108 6.42957 15.2055C4.84478 11.3992 0.711223 8.74437 1.01599 5.94277C1.32076 3.14116 4.76351 3.4211 4.76351 3.4211" stroke="#BDBDBD" stroke-width="2" stroke-miterlimit="10" stroke-linejoin="round"/>
<path d="M12.8591 21.3618C16.6721 20.3505 15.4304 14.8353 15.1324 12.7922C14.5387 8.71058 16.7217 4.31064 15.0218 2.06439C13.3219 -0.181863 10.5112 1.82509 10.5112 1.82509" stroke="#BDBDBD" stroke-width="2" stroke-miterlimit="10" stroke-linejoin="round"/>
<path d="M22.4174 9.88906C24.3187 9.88906 25.8601 8.34769 25.8601 6.44632C25.8601 4.54494 24.3187 3.00357 22.4174 3.00357C20.516 3.00357 18.9746 4.54494 18.9746 6.44632C18.9746 8.34769 20.516 9.88906 22.4174 9.88906Z" fill="#878787"/>
<path d="M22.5391 9.22516C24.211 9.22516 25.5664 7.86977 25.5664 6.1978C25.5664 4.52584 24.211 3.17044 22.5391 3.17044C20.8671 3.17044 19.5117 4.52584 19.5117 6.1978C19.5117 7.86977 20.8671 9.22516 22.5391 9.22516Z" fill="#BDBDBD"/>
<path d="M15.0916 12.4739C14.8906 13.9955 17.3807 19.5536 13.5181 21.0752C9.19261 22.7819 7.57847 16.4359 6.43164 15.2056" stroke="black" stroke-width="2" stroke-miterlimit="10"/>
<path d="M6.79297 15.7722C6.79297 15.7722 9.22434 18.3367 12.0756 17.1606C14.7779 16.0453 15.1978 13.0857 15.1978 13.0857" stroke="#BDBDBD" stroke-width="2" stroke-miterlimit="10"/>
<path opacity="0.22" d="M22.2186 4.00808C21.0357 4.2835 20.302 5.46419 20.5751 6.64715C20.6158 6.82323 20.679 6.99481 20.7625 7.15735L20.916 7.45986C20.4826 8.0265 20.1304 8.24323 20.0107 8.90017C20.3178 9.20042 20.6767 9.43972 21.0695 9.60678C21.0695 9.60452 21.0718 9.60226 21.0718 9.60001C21.0718 9.60226 21.074 9.60452 21.074 9.60904C21.722 9.88446 22.4602 9.96799 23.2006 9.79641C23.2842 9.77609 23.3632 9.75126 23.4422 9.72643L23.3722 9.09432C23.3722 9.09432 23.4625 8.29289 23.4828 8.25C23.5348 8.14841 23.7447 8.09423 23.8531 8.03102C24.1149 7.87299 24.343 7.65852 24.519 7.40794C24.6946 7.15488 24.8155 6.86794 24.8738 6.5655C24.9321 6.26306 24.9266 5.95177 24.8577 5.65157C24.5823 4.46862 23.3993 3.73266 22.2186 4.00808Z" fill="#212121"/>
<path d="M13.0664 20.8493C15.2314 25.8091 18.55 26.5112 21.0017 26.0845C23.1553 25.7075 26.0066 23.7773 25.9998 20.2781C25.9908 16.0611 23.1779 16.3274 21.6541 13.6252C19.7555 10.2569 22.3426 7.16409 22.3426 7.16409" stroke="#FFFCF5" stroke-width="2" stroke-miterlimit="10"/>
<path opacity="0.22" d="M20.8145 7.92267C20.8145 7.92267 21.2434 7.70369 21.6543 7.93847C22.3044 8.30871 22.3676 8.83697 22.3676 8.83697C22.3676 8.83697 22.7605 8.05586 22.9704 7.84365C23.1781 7.62919 21.713 6.56589 21.3811 6.9745C21.0492 7.38312 20.8145 7.92267 20.8145 7.92267Z" fill="#212121"/>
<path d="M5.70932 2.33977C5.37069 2.34203 5.0727 2.50457 4.87629 2.75064L4.59636 2.52941C4.34125 2.32848 3.9665 2.51135 3.96876 2.83643L3.97779 4.00809C3.98005 4.33318 4.35706 4.51152 4.60764 4.30609L4.88081 4.08485C5.07947 4.33092 5.38198 4.49121 5.72287 4.48895C6.3166 4.48443 6.7952 3.99906 6.79068 3.40533C6.78617 2.8116 6.30306 2.33526 5.70932 2.33977ZM11.4209 1.9289L10.8226 0.922038C10.6556 0.642103 10.2402 0.680481 10.1273 0.982991L10.0032 1.31711C9.70742 1.20649 9.36879 1.22229 9.07757 1.39612C8.95607 1.46822 8.84999 1.56357 8.76538 1.67671C8.68077 1.78985 8.6193 1.91857 8.5845 2.0555C8.54969 2.19242 8.54222 2.33486 8.56253 2.47468C8.58283 2.61449 8.6305 2.74893 8.70282 2.87029C8.77492 2.99179 8.87027 3.09788 8.98341 3.18249C9.09655 3.26709 9.22527 3.32856 9.36219 3.36337C9.49912 3.39818 9.64156 3.40564 9.78138 3.38534C9.92119 3.36504 10.0556 3.31736 10.177 3.24505C10.4705 3.07121 10.6466 2.77773 10.6895 2.46394L11.0371 2.51135C11.3577 2.55424 11.588 2.20883 11.4209 1.9289Z" fill="#616161"/>
<path d="M22.948 7.84373C24.0851 7.84373 25.0069 6.92194 25.0069 5.78486C25.0069 4.64777 24.0851 3.72598 22.948 3.72598C21.811 3.72598 20.8892 4.64777 20.8892 5.78486C20.8892 6.92194 21.811 7.84373 22.948 7.84373Z" fill="#424242"/>
<path d="M23.0515 7.22277C23.9342 7.22277 24.6498 6.50717 24.6498 5.62443C24.6498 4.74169 23.9342 4.02609 23.0515 4.02609C22.1687 4.02609 21.4531 4.74169 21.4531 5.62443C21.4531 6.50717 22.1687 7.22277 23.0515 7.22277Z" fill="#D1D1D1"/>
<path d="M9.62555 3.03153C9.40798 2.65516 9.44992 1.95302 9.82476 1.63358C10.1996 1.31414 10.7658 1.4533 10.9834 1.87395C11.2271 2.34204 10.5902 1.92139 10.2153 2.24083C9.84049 2.56027 9.88767 3.48697 9.62555 3.03153ZM5.075 3.70836C5.16936 3.26241 5.63333 2.84176 6.07895 2.9746C6.52457 3.10743 6.80767 3.71152 6.68709 4.18594C6.5534 4.71412 6.39875 3.85701 5.95313 3.72734C5.51013 3.5945 4.96228 4.24603 5.075 3.70836Z" fill="#757575"/>
</svg>
